# xmcd
#
# Track frame offsets:
#	150
#	13598
#	28652
#	41017
#	53745
#	67458
#	81269
#	101771
#	117708
#	130214
#	145516
#	162650
#	173549
#	189319
#	200143
#	212635
#
# Disc length: 3057 seconds
#
# Revision: 2
# Processed by: cddbd v1.5.2PL0 Copyright (c) Steve Scherf et al.
# Submitted via: audiograbber 1.83.01
#
DISCID=ee0bef10
DTITLE=Percy Sledge - A Man In Love
DYEAR=2002
DGENRE=Blues
TTITLE0=When A Man Loves A Woman
TTITLE1=Warm And Tender Love
TTITLE2=My Adorable One
TTITLE3=Cover Me
TTITLE4=My Special Prayer
TTITLE5=Take Time To Know Her
TTITLE6=The Good Love
TTITLE7=Walkin' In The Sun
TTITLE8=It Tears Me Up
TTITLE9=Out Of Left Field
TTITLE10=Make It Good, Make It Last
TTITLE11=You're Pouring Water Om A Drowning Man
TTITLE12=Just Out Of Reach
TTITLE13=Thief In The Night
TTITLE14=Sudden Stop
TTITLE15=Behind Closed Doors
EXTD=
EXTT0=
EXTT1=
EXTT2=
EXTT3=
EXTT4=
EXTT5=
EXTT6=
EXTT7=
EXTT8=
EXTT9=
EXTT10=
EXTT11=
EXTT12=
EXTT13=
EXTT14=
EXTT15=
PLAYORDER=
